<svg width="24" height="24" viewBox="0 0 24 24" fill="none" xmlns="http://www.w3.org/2000/svg">
<path fill-rule="evenodd" clip-rule="evenodd" d="M7.5 7.25H17.6893L15.4697 9.46967L16.5303 10.5303L20.5607 6.5L16.5303 2.46967L15.4697 3.53033L17.6893 5.75H7.5C5.42893 5.75 3.75 7.42893 3.75 9.5C3.75 11.5711 5.42893 13.25 7.5 13.25H12.5C13.7426 13.25 14.75 14.2574 14.75 15.5C14.75 16.7426 13.7426 17.75 12.5 17.75H8.88555C8.56698 16.7357 7.61941 16 6.5 16C5.11929 16 4 17.1193 4 18.5C4 19.8807 5.11929 21 6.5 21C7.61941 21 8.56698 20.2643 8.88555 19.25H12.5C14.5711 19.25 16.25 17.5711 16.25 15.5C16.25 13.4289 14.5711 11.75 12.5 11.75H7.5C6.25736 11.75 5.25 10.7426 5.25 9.5C5.25 8.25736 6.25736 7.25 7.5 7.25ZM7.5 18.5C7.5 19.0523 7.05228 19.5 6.5 19.5C5.94772 19.5 5.5 19.0523 5.5 18.5C5.5 17.9477 5.94772 17.5 6.5 17.5C7.05228 17.5 7.5 17.9477 7.5 18.5Z" fill="black"/>
</svg>
